<svg width="23" height="20" viewBox="0 0 23 20" fill="none" xmlns="http://www.w3.org/2000/svg">
<path d="M18.5 20H17H15.5H14H7.50006L7.50002 18.6842C7.50002 18.1136 7.95796 17.6316 8.50002 17.6316H11C12.2627 17.6316 13.3898 17.0118 14.1235 16.0469V16.0526H15.2501C17.0421 16.0526 18.5 14.636 18.5 12.8947V11.3158H17V12.8947C17 13.7654 16.215 14.4737 15.2501 14.4737H14.8735C14.9561 14.1371 15.0001 13.7844 15.0001 13.421V9.21051H12.0001V11.3158H7.75009C6.78511 11.3158 6.00011 10.6075 6.00011 9.73683V9.21051H4.5001V9.73683C4.5001 11.4781 5.95805 12.8947 7.75009 12.8947H12.0001V13.421C12.0001 13.9916 11.5421 14.4737 11.0001 14.4737H8.50007C6.29444 14.4737 4.50006 16.3625 4.50006 18.6842L4.5001 20H2.25003H0H17.3902H18.5Z" fill="#514683"/>
<path d="M18.75 2.63159H16.741C16.6711 1.62297 16.2051 1.01954 15.8092 0.684278C15.2807 0.236588 14.5686 0 13.75 0H9.25002C8.43137 0 7.71929 0.236588 7.19077 0.684278C6.79494 1.01954 6.32887 1.62297 6.25896 2.63159H4.25001C2.59583 2.63159 1.25 4.16626 1.25 6.05262V7.63157H21.75V6.05262C21.75 4.16626 20.4042 2.63159 18.75 2.63159Z" fill="#514683"/>
</svg>
