<svg width="32" height="98" viewBox="0 0 32 98" fill="none" xmlns="http://www.w3.org/2000/svg">
<g clip-path="url(#clip0_106_91)">
<rect x="0.178711" width="31.6428" height="31.6428" rx="2.51704" fill="#E9ECF3"/>
<path d="M14.0925 24.0446V18.0289H18.103V24.0446H23.1162V16.0236H26.124L16.0978 7L6.07153 16.0236H9.07941V24.0446H14.0925Z" fill="#8378B3"/>
</g>
<g clip-path="url(#clip1_106_91)">
<path d="M16 52.865C18.2509 52.865 20.074 51.0419 20.074 48.791C20.074 46.54 18.2509 44.7169 16 44.7169C13.749 44.7169 11.9259 46.54 11.9259 48.791C11.9259 51.0419 13.749 52.865 16 52.865ZM16 54.9021C13.2805 54.9021 7.85181 56.2669 7.85181 58.9761V61.0132H24.1481V58.9761C24.1481 56.2669 18.7194 54.9021 16 54.9021Z" fill="#6C6C6C"/>
</g>
<g clip-path="url(#clip2_106_91)">
<path d="M24.171 76.9712L24.0172 77L18.8838 78.9899L13.116 76.9712L7.69421 78.7977C7.49234 78.865 7.34814 79.038 7.34814 79.2591V93.794C7.34814 94.0632 7.55963 94.2747 7.8288 94.2747L7.98261 94.2458L13.116 92.2559L18.8838 94.2747L24.3055 92.4482C24.5074 92.3809 24.6516 92.2079 24.6516 91.9868V77.4518C24.6516 77.1827 24.4401 76.9712 24.171 76.9712ZM18.8838 92.3521L13.116 90.3237V78.8938L18.8838 80.9221V92.3521Z" fill="#6C6C6C"/>
</g>
<defs>
<clipPath id="clip0_106_91">
<rect x="0.178711" width="31.6428" height="31.6428" rx="2.51704" fill="white"/>
</clipPath>
<clipPath id="clip1_106_91">
<rect width="24.4444" height="24.4444" fill="white" transform="translate(3.77783 40.6428)"/>
</clipPath>
<clipPath id="clip2_106_91">
<rect width="23.0713" height="23.0713" fill="white" transform="translate(4.46436 74.0873)"/>
</clipPath>
</defs>
</svg>
